<?xml version="1.0" standalone="no"?>
<!DOCTYPE svg PUBLIC "-//W3C//DTD SVG 20010904//EN"
 "http://www.w3.org/TR/2001/REC-SVG-20010904/DTD/svg10.dtd">
<svg version="1.0" xmlns="http://www.w3.org/2000/svg"
 width="400.000000pt" height="400.000000pt" viewBox="0 0 400.000000 400.000000"
 preserveAspectRatio="xMidYMid meet">
<metadata>
Created by potrace 1.11, written by Peter Selinger 2001-2013
</metadata>
<g transform="translate(0.000000,400.000000) scale(0.100000,-0.100000)"
fill="#000000" stroke="none">
<path d="M3609 3663 c0 -5 -2 -758 -2 -1675 -2 -1477 0 -1668 13 -1669 21 -1
156 -1 213 0 l47 1 0 1675 0 1675 -135 0 c-74 0 -135 -3 -136 -7z"/>
<path d="M184 1574 c-17 -8 -36 -26 -43 -40 -8 -17 -11 -162 -11 -480 l0 -456
29 -29 c33 -32 58 -36 101 -14 19 10 31 26 36 47 4 18 6 170 6 338 l-1 305 41
-65 c22 -36 74 -119 116 -185 41 -66 88 -132 104 -147 34 -33 75 -36 111 -8
13 11 78 102 143 202 l119 182 5 -317 c5 -307 6 -317 26 -338 42 -42 122 -32
147 18 21 42 19 932 -2 957 -39 46 -100 52 -137 13 -12 -12 -95 -132 -184
-266 -89 -133 -165 -239 -169 -235 -4 5 -76 116 -160 246 -84 130 -163 245
-175 256 -30 28 -66 33 -102 16z"/>
<path d="M1432 1579 c-81 -11 -77 19 -80 -508 l-3 -469 25 -29 24 -28 286 -3
287 -3 29 30 c32 31 37 55 19 94 -21 45 -43 50 -268 50 -116 0 -212 3 -212 6
-4 16 -5 248 -2 257 3 8 62 12 186 12 161 1 184 3 207 20 34 26 39 87 9 122
-21 25 -24 25 -212 30 l-192 5 0 123 -1 122 219 0 219 0 29 29 c41 42 35 106
-12 132 -24 12 -474 19 -557 8z"/>
<path d="M2273 1582 c-12 -2 -33 -15 -47 -29 l-26 -26 0 -463 0 -463 24 -28
24 -28 224 -2 c251 -3 320 7 399 57 139 90 215 246 218 449 4 272 -117 464
-329 521 -41 11 -427 20 -487 12z m460 -191 c57 -27 91 -60 121 -117 51 -100
58 -274 16 -388 -29 -76 -87 -139 -147 -158 -64 -21 -332 -25 -334 -6 -1 7 -2
164 -3 348 l-1 335 45 5 c25 3 94 4 153 3 83 -2 118 -7 150 -22z"/>
</g>
</svg>
