<svg xmlns="http://www.w3.org/2000/svg" viewBox="0 0 250 125">
  <g fill="none" fill-rule="evenodd">
    <rect width="250" height="125" fill="#FFFFFF"/>
    <path fill="#000000" fill-rule="nonzero" d="M33.3355 94C33.9468333 94 34.4380833 93.8089583 34.80925 93.426875 35.1804167 93.0447917 35.366 92.5699167 35.366 92.00225L35.366 92.00225 35.366 73.04C35.366 72.4505 35.1585833 71.9701667 34.74375 71.599 34.3289167 71.2278333 33.8595 71.04225 33.3355 71.04225 32.6805 71.04225 32.1455833 71.337 31.73075 71.9265L31.73075 71.9265 24.385 82.901 17.25525 71.9265C17.1096944 71.7081667 16.9072813 71.5239479 16.6480104 71.3738437L16.485625 71.287875C16.1472083 71.124125 15.8251667 71.04225 15.5195 71.04225 14.9518333 71.04225 14.4660417 71.23875 14.062125 71.63175 13.6582083 72.02475 13.45625 72.4941667 13.45625 73.04L13.45625 73.04 13.45625 92.00225C13.45625 92.5699167 13.6309167 93.0447917 13.98025 93.426875 14.3295833 93.8089583 14.7771667 94 15.323 94 15.8906667 94 16.3491667 93.8089583 16.6985 93.426875 17.0478333 93.0447917 17.2225 92.5699167 17.2225 92.00225L17.2225 92.00225 17.222 78.513 22.62625 87.057C22.78345 87.2491333 22.97209 87.4203067 23.19217 87.57052L23.363125 87.67925C23.657875 87.8539167 23.9471667 87.9303333 24.231 87.9085 24.5366667 87.9303333 24.836875 87.8539167 25.131625 87.67925 25.426375 87.5045833 25.672 87.2971667 25.8685 87.057L25.8685 87.057 31.272 78.819 31.27225 92.00225C31.27225 92.5068426 31.4231965 92.9381183 31.7250895 93.2960772L31.845375 93.426875C32.2274583 93.8089583 32.7241667 94 33.3355 94zM50.92225 94.3275C51.5554167 94.3275 52.1776667 94.278375 52.789 94.180125 53.4003333 94.081875 54.0062083 93.9399583 54.606625 93.754375 55.2070417 93.5687917 55.7910833 93.3340833 56.35875 93.05025 56.9045833 92.78825 57.2375417 92.3679583 57.357625 91.789375 57.4777083 91.2107917 57.3194167 90.6485833 56.88275 90.10275 56.5770833 89.70975 56.2004583 89.4805 55.752875 89.415 55.3052917 89.3495 54.85225 89.4259167 54.39375 89.64425 53.8479167 89.9280833 53.28025 90.1245833 52.69075 90.23375 52.10125 90.3429167 51.51175 90.3975 50.92225 90.3975 49.8524167 90.3975 48.859 90.2392083 47.942 89.922625 47.025 89.6060417 46.2280833 89.12025 45.55125 88.46525 44.8744167 87.81025 44.3449583 86.9915 43.962875 86.009 43.5807917 85.0265 43.38975 83.8693333 43.38975 82.5375 43.38975 81.4021667 43.5589583 80.3650833 43.897375 79.42625 44.2357917 78.4874167 44.7325 77.674125 45.3875 76.986375 46.0425 76.298625 46.8339583 75.7691667 47.761875 75.398 48.6897917 75.0268333 49.74325 74.84125 50.92225 74.84125 51.5554167 74.84125 52.1612917 74.90675 52.739875 75.03775 53.3184583 75.16875 53.86975 75.3543333 54.39375 75.5945 54.85225 75.8128333 55.3052917 75.9001667 55.752875 75.8565 56.2004583 75.8128333 56.5661667 75.5945 56.85 75.2015 57.2648333 74.6993333 57.423125 74.1425833 57.324875 73.53125 57.226625 72.9199167 56.8936667 72.4723333 56.326 72.1885 55.5181667 71.7736667 54.65575 71.4570833 53.73875 71.23875 52.82175 71.0204167 51.8829167 70.91125 50.92225 70.91125 49.21925 70.91125 47.64725 71.2005417 46.20625 71.779125 44.76525 72.3577083 43.5152917 73.1655417 42.456375 74.202625 41.3974583 75.2397083 40.5787083 76.4678333 40.000125 77.887 39.4215417 79.3061667 39.13225 80.8563333 39.13225 82.5375 39.13225 84.4806667 39.4488333 86.189125 40.082 87.662875 40.7151667 89.136625 41.5830417 90.36475 42.685625 91.34725 43.7882083 92.32975 45.043625 93.0720833 46.451875 93.57425 47.860125 94.0764167 49.35025 94.3275 50.92225 94.3275zM71.4565 94.3275C72.0896667 94.3275 72.7119167 94.278375 73.32325 94.180125 73.9345833 94.081875 74.5404583 93.9399583 75.140875 93.754375 75.7412917 93.5687917 76.3253333 93.3340833 76.893 93.05025 77.4388333 92.78825 77.7717917 92.3679583 77.891875 91.789375 78.0119583 91.2107917 77.8536667 90.6485833 77.417 90.10275 77.1113333 89.70975 76.7347083 89.4805 76.287125 89.415 75.8395417 89.3495 75.3865 89.4259167 74.928 89.64425 74.3821667 89.9280833 73.8145 90.1245833 73.225 90.23375 72.6355 90.3429167 72.046 90.3975 71.4565 90.3975 70.3866667 90.3975 69.39325 90.2392083 68.47625 89.922625 67.55925 89.6060417 66.7623333 89.12025 66.0855 88.46525 65.4086667 87.81025 64.8792083 86.9915 64.497125 86.009 64.1150417 85.0265 63.924 83.8693333 63.924 82.5375 63.924 81.4021667 64.0932083 80.3650833 64.431625 79.42625 64.7700417 78.4874167 65.26675 77.674125 65.92175 76.986375 66.57675 76.298625 67.3682083 75.7691667 68.296125 75.398 69.2240417 75.0268333 70.2775 74.84125 71.4565 74.84125 72.0896667 74.84125 72.6955417 74.90675 73.274125 75.03775 73.8527083 75.16875 74.404 75.3543333 74.928 75.5945 75.3865 75.8128333 75.8395417 75.9001667 76.287125 75.8565 76.7347083 75.8128333 77.1004167 75.5945 77.38425 75.2015 77.7990833 74.6993333 77.957375 74.1425833 77.859125 73.53125 77.760875 72.9199167 77.4279167 72.4723333 76.86025 72.1885 76.0524167 71.7736667 75.19 71.4570833 74.273 71.23875 73.356 71.0204167 72.4171667 70.91125 71.4565 70.91125 69.7535 70.91125 68.1815 71.2005417 66.7405 71.779125 65.2995 72.3577083 64.0495417 73.1655417 62.990625 74.202625 61.9317083 75.2397083 61.1129583 76.4678333 60.534375 77.887 59.9557917 79.3061667 59.6665 80.8563333 59.6665 82.5375 59.6665 84.4806667 59.9830833 86.189125 60.61625 87.662875 61.2494167 89.136625 62.1172917 90.36475 63.219875 91.34725 64.3224583 92.32975 65.577875 93.0720833 66.986125 93.57425 68.394375 94.0764167 69.8845 94.3275 71.4565 94.3275zM115.5665 42C115.746333 42 115.8985 41.93775 116.023 41.81325 116.1475 41.68875 116.20975 41.5435 116.20975 41.3775L116.20975 41.3775 116.20975 28.0975C116.20975 27.9176667 116.150958 27.7689583 116.033375 27.651375 115.915792 27.5337917 115.774 27.475 115.608 27.475 115.386667 27.4473333 115.199917 27.53725 115.04775 27.74475L115.04775 27.74475 109.574 35.907 104.13325 27.74475C104.081375 27.672125 104.019773 27.6150625 103.948445 27.5735625L103.873875 27.53725C103.770125 27.49575 103.669833 27.475 103.573 27.475 103.393167 27.475 103.244458 27.53725 103.126875 27.66175 103.009292 27.78625 102.9505 27.9315 102.9505 28.0975L102.9505 28.0975 102.9505 41.3775C102.9505 41.5435 103.005833 41.68875 103.1165 41.81325 103.227167 41.93775 103.372417 42 103.55225 42 103.732083 42 103.880792 41.93775 103.998375 41.81325 104.115958 41.68875 104.17475 41.5435 104.17475 41.3775L104.17475 41.3775 104.174 29.922 109.051 37.352C109.087889 37.4073333 109.132463 37.4549815 109.184722 37.4949444L109.268875 37.549125C109.358792 37.5975417 109.452167 37.6148333 109.549 37.601 109.659667 37.6148333 109.7565 37.5975417 109.8395 37.549125 109.9225 37.5007083 109.98475 37.435 110.02625 37.352L110.02625 37.352 114.902 29.971 114.9025 41.3775C114.9025 41.5103 114.94234 41.62982 115.02202 41.73606L115.08925 41.81325C115.21375 41.93775 115.372833 42 115.5665 42zM128.338125 42C128.504125 42 128.649375 41.9446667 128.773875 41.834 128.898375 41.7233333 128.960625 41.5780833 128.960625 41.39825 128.960625 41.23225 128.898375 41.087 128.773875 40.9625 128.649375 40.838 128.504125 40.77575 128.338125 40.77575L128.338125 40.77575 121.407 40.776 121.407 35.132 127.404375 35.13175C127.537175 35.13175 127.656695 35.0963367 127.762935 35.02551L127.840125 34.96575C127.964625 34.8550833 128.026875 34.7098333 128.026875 34.53 128.026875 34.364 127.964625 34.21875 127.840125 34.09425 127.715625 33.96975 127.570375 33.9075 127.404375 33.9075L127.404375 33.9075 121.407 33.908 121.407 28.7 128.338125 28.69925C128.470925 28.69925 128.590445 28.6638367 128.696685 28.59301L128.773875 28.53325C128.898375 28.4225833 128.960625 28.2773333 128.960625 28.0975 128.960625 27.9176667 128.898375 27.7689583 128.773875 27.651375 128.649375 27.5337917 128.504125 27.475 128.338125 27.475L128.338125 27.475 120.722875 27.475C120.556875 27.475 120.411625 27.53725 120.287125 27.66175 120.162625 27.78625 120.100375 27.9315 120.100375 28.0975L120.100375 28.0975 120.100375 41.3775C120.100375 41.5435 120.162625 41.68875 120.287125 41.81325 120.411625 41.93775 120.556875 42 120.722875 42L120.722875 42 128.338125 42zM137.805313 42C139.188646 42 140.326437 41.6714583 141.218687 41.014375 142.110938 40.3572917 142.774938 39.478875 143.210688 38.379125 143.646438 37.279375 143.864313 36.0655 143.864313 34.7375 143.864313 33.783 143.743271 32.87 143.501188 31.9985 143.259104 31.127 142.889063 30.348875 142.391063 29.664125 141.893063 28.979375 141.260188 28.4433333 140.492437 28.056 139.724688 27.6686667 138.828979 27.475 137.805313 27.475L137.805313 27.475 132.514063 27.475C132.348063 27.475 132.202813 27.53725 132.078313 27.66175 131.953813 27.78625 131.891563 27.9315 131.891563 28.0975L131.891563 28.0975 131.891563 41.3775C131.891563 41.5435 131.953813 41.68875 132.078313 41.81325 132.202813 41.93775 132.348063 42 132.514063 42L132.514063 42 137.805313 42zM133.198 28.7L137.597813 28.69925C138.469313 28.69925 139.219771 28.8617917 139.849188 29.186875 140.478604 29.5119583 140.990438 29.954625 141.384687 30.514875 141.778938 31.075125 142.069438 31.718375 142.256188 32.444625 142.442938 33.170875 142.536313 33.9351667 142.536313 34.7375 142.536313 35.8441667 142.366854 36.8574583 142.027938 37.777375 141.689021 38.6972917 141.159896 39.427 140.440562 39.9665 139.721229 40.506 138.773646 40.77575 137.597813 40.77575L137.597813 40.77575 133.198 40.776 133.198 28.7zM147.448875 42C147.614875 42 147.763583 41.93775 147.895 41.81325 148.026417 41.68875 148.099042 41.5365833 148.112875 41.35675L148.112875 41.35675 148.112875 28.11825C148.112875 27.9384167 148.047167 27.78625 147.91575 27.66175 147.784333 27.53725 147.635625 27.475 147.469625 27.475 147.275958 27.475 147.116875 27.53725 146.992375 27.66175 146.867875 27.78625 146.805625 27.9384167 146.805625 28.11825L146.805625 28.11825 146.805625 41.35675C146.805625 41.5365833 146.864417 41.68875 146.982 41.81325 147.099583 41.93775 147.255208 42 147.448875 42zM158.327063 42.2075C158.852729 42.2075 159.378396 42.1487083 159.904063 42.031125 160.429729 41.9135417 160.927729 41.7579167 161.398063 41.56425 161.868396 41.3705833 162.276479 41.1630833 162.622313 40.94175 162.774479 40.8449167 162.867854 40.7100417 162.902438 40.537125 162.937021 40.3642083 162.892063 40.2016667 162.767562 40.0495 162.670729 39.9111667 162.542771 39.831625 162.383688 39.810875 162.224604 39.790125 162.075896 39.82125 161.937563 39.90425 161.411896 40.23625 160.848188 40.4990833 160.246438 40.69275 159.644688 40.8864167 159.004896 40.98325 158.327063 40.98325 157.497063 40.98325 156.722396 40.838 156.003062 40.5475 155.283729 40.257 154.650854 39.8350833 154.104438 39.28175 153.558021 38.7284167 153.132646 38.067875 152.828312 37.300125 152.523979 36.532375 152.371813 35.6781667 152.371813 34.7375 152.371813 33.8245 152.520521 32.9875833 152.817938 32.22675 153.115354 31.4659167 153.533813 30.805375 154.073312 30.245125 154.612813 29.684875 155.245688 29.2560417 155.971938 28.958625 156.698188 28.6612083 157.483229 28.5125 158.327063 28.5125 159.018729 28.5125 159.665438 28.6093333 160.267188 28.803 160.868938 28.9966667 161.432646 29.2664167 161.958313 29.61225 162.096646 29.6814167 162.241896 29.7090833 162.394063 29.69525 162.546229 29.6814167 162.670729 29.61225 162.767562 29.48775 162.878229 29.32175 162.919729 29.1522917 162.892063 28.979375 162.864396 28.8064583 162.767562 28.6646667 162.601562 28.554 162.006729 28.1528333 161.342729 27.8415833 160.609562 27.62025 159.876396 27.3989167 159.115563 27.28825 158.327063 27.28825 157.317229 27.28825 156.369646 27.475 155.484312 27.8485 154.598979 28.222 153.824313 28.74075 153.160313 29.40475 152.496313 30.06875 151.977563 30.8537917 151.604062 31.759875 151.230563 32.6659583 151.043813 33.6585 151.043813 34.7375 151.043813 35.858 151.234021 36.87475 151.614438 37.78775 151.994854 38.70075 152.523979 39.4857917 153.201813 40.142875 153.879646 40.7999583 154.654313 41.3083333 155.525813 41.668 156.397312 42.0276667 157.331063 42.2075 158.327063 42.2075zM175.80375 42.02075C175.96975 42.02075 176.115 41.968875 176.2395 41.865125 176.364 41.761375 176.42625 41.6126667 176.42625 41.419 176.42625 41.336 176.412417 41.253 176.38475 41.17L176.38475 41.17 170.9275 27.82775C170.872167 27.70325 170.792625 27.6029583 170.688875 27.526875 170.585125 27.4507917 170.464083 27.41275 170.32575 27.41275 170.187417 27.41275 170.066375 27.443875 169.962625 27.506125 169.858875 27.568375 169.772417 27.6755833 169.70325 27.82775L169.70325 27.82775 164.22525 41.23225C164.197583 41.3290833 164.190667 41.4120833 164.2045 41.48125 164.218333 41.6334167 164.273667 41.761375 164.3705 41.865125 164.467333 41.968875 164.612583 42.02075 164.80625 42.02075 164.93075 42.02075 165.041417 41.9861667 165.13825 41.917 165.235083 41.8478333 165.311167 41.7440833 165.3665 41.60575L165.3665 41.60575 166.894 37.809 173.647 37.809 175.202 41.60575C175.2435 41.699125 175.298617 41.7788828 175.367352 41.8450234L175.440625 41.906625C175.544375 41.9827083 175.665417 42.02075 175.80375 42.02075zM173.146 36.585L167.386 36.585 170.24 29.491 173.146 36.585zM186.998375 42C187.164375 42 187.309625 41.9412083 187.434125 41.823625 187.558625 41.7060417 187.620875 41.5573333 187.620875 41.3775 187.620875 41.2115 187.558625 41.0697083 187.434125 40.952125 187.309625 40.8345417 187.164375 40.77575 186.998375 40.77575L186.998375 40.77575 180.275 40.776 180.275375 28.0975C180.275375 27.9647 180.233322 27.84518 180.149215 27.73894L180.07825 27.66175C179.946833 27.53725 179.798125 27.475 179.632125 27.475 179.438458 27.475 179.279375 27.53725 179.154875 27.66175 179.030375 27.78625 178.968125 27.9315 178.968125 28.0975L178.968125 28.0975 178.968125 41.3775C178.968125 41.5435 179.026917 41.68875 179.1445 41.81325 179.262083 41.93775 179.410792 42 179.590625 42L179.590625 42 186.998375 42zM109.27925 68.2075C109.804917 68.2075 110.330583 68.1487083 110.85625 68.031125 111.381917 67.9135417 111.879917 67.7579167 112.35025 67.56425 112.820583 67.3705833 113.228667 67.1630833 113.5745 66.94175 113.726667 66.8449167 113.820042 66.7100417 113.854625 66.537125 113.889208 66.3642083 113.84425 66.2016667 113.71975 66.0495 113.622917 65.9111667 113.494958 65.831625 113.335875 65.810875 113.176792 65.790125 113.028083 65.82125 112.88975 65.90425 112.364083 66.23625 111.800375 66.4990833 111.198625 66.69275 110.596875 66.8864167 109.957083 66.98325 109.27925 66.98325 108.44925 66.98325 107.674583 66.838 106.95525 66.5475 106.235917 66.257 105.603042 65.8350833 105.056625 65.28175 104.510208 64.7284167 104.084833 64.067875 103.7805 63.300125 103.476167 62.532375 103.324 61.6781667 103.324 60.7375 103.324 59.8245 103.472708 58.9875833 103.770125 58.22675 104.067542 57.4659167 104.486 56.805375 105.0255 56.245125 105.565 55.684875 106.197875 55.2560417 106.924125 54.958625 107.650375 54.6612083 108.435417 54.5125 109.27925 54.5125 109.970917 54.5125 110.617625 54.6093333 111.219375 54.803 111.821125 54.9966667 112.384833 55.2664167 112.9105 55.61225 113.048833 55.6814167 113.194083 55.7090833 113.34625 55.69525 113.498417 55.6814167 113.622917 55.61225 113.71975 55.48775 113.830417 55.32175 113.871917 55.1522917 113.84425 54.979375 113.816583 54.8064583 113.71975 54.6646667 113.55375 54.554 112.958917 54.1528333 112.294917 53.8415833 111.56175 53.62025 110.828583 53.3989167 110.06775 53.28825 109.27925 53.28825 108.269417 53.28825 107.321833 53.475 106.4365 53.8485 105.551167 54.222 104.7765 54.74075 104.1125 55.40475 103.4485 56.06875 102.92975 56.8537917 102.55625 57.759875 102.18275 58.6659583 101.996 59.6585 101.996 60.7375 101.996 61.858 102.186208 62.87475 102.566625 63.78775 102.947042 64.70075 103.476167 65.4857917 104.154 66.142875 104.831833 66.7999583 105.6065 67.3083333 106.478 67.668 107.3495 68.0276667 108.28325 68.2075 109.27925 68.2075zM122.502188 68.2075C123.512021 68.2075 124.442313 68.0242083 125.293063 67.657625 126.143813 67.2910417 126.880438 66.7722917 127.502938 66.101375 128.125438 65.4304583 128.606146 64.6419583 128.945063 63.735875 129.283979 62.8297917 129.453438 61.8303333 129.453438 60.7375 129.453438 59.6446667 129.283979 58.6452083 128.945063 57.739125 128.606146 56.8330417 128.125438 56.0445417 127.502938 55.373625 126.880438 54.7027083 126.143813 54.1839583 125.293063 53.817375 124.442313 53.4507917 123.512021 53.2675 122.502188 53.2675 121.492354 53.2675 120.562063 53.4507917 119.711313 53.817375 118.860563 54.1839583 118.123938 54.7027083 117.501438 55.373625 116.878938 56.0445417 116.398229 56.8330417 116.059313 57.739125 115.720396 58.6452083 115.550938 59.6446667 115.550938 60.7375 115.550938 61.8303333 115.720396 62.8297917 116.059313 63.735875 116.398229 64.6419583 116.878938 65.4304583 117.501438 66.101375 118.123938 66.7722917 118.860563 67.2910417 119.711313 67.657625 120.562063 68.0242083 121.492354 68.2075 122.502188 68.2075zM122.502188 66.9625C121.409354 66.9625 120.437563 66.6996667 119.586813 66.174 118.736063 65.6483333 118.072063 64.918625 117.594813 63.984875 117.117563 63.051125 116.878938 61.9686667 116.878938 60.7375 116.878938 59.5063333 117.117563 58.423875 117.594813 57.490125 118.072063 56.556375 118.736063 55.8266667 119.586813 55.301 120.437563 54.7753333 121.409354 54.5125 122.502188 54.5125 123.608854 54.5125 124.584104 54.7753333 125.427938 55.301 126.271771 55.8266667 126.932313 56.556375 127.409563 57.490125 127.886813 58.423875 128.125438 59.5063333 128.125438 60.7375 128.125438 61.9686667 127.886813 63.051125 127.409563 63.984875 126.932313 64.918625 126.271771 65.6483333 125.427938 66.174 124.584104 66.6996667 123.608854 66.9625 122.502188 66.9625zM145.01075 68C145.190583 68 145.34275 67.93775 145.46725 67.81325 145.59175 67.68875 145.654 67.5435 145.654 67.3775L145.654 67.3775 145.654 54.0975C145.654 53.9176667 145.595208 53.7689583 145.477625 53.651375 145.360042 53.5337917 145.21825 53.475 145.05225 53.475 144.830917 53.4473333 144.644167 53.53725 144.492 53.74475L144.492 53.74475 139.018 61.907 133.5775 53.74475C133.525625 53.672125 133.464023 53.6150625 133.392695 53.5735625L133.318125 53.53725C133.214375 53.49575 133.114083 53.475 133.01725 53.475 132.837417 53.475 132.688708 53.53725 132.571125 53.66175 132.453542 53.78625 132.39475 53.9315 132.39475 54.0975L132.39475 54.0975 132.39475 67.3775C132.39475 67.5435 132.450083 67.68875 132.56075 67.81325 132.671417 67.93775 132.816667 68 132.9965 68 133.176333 68 133.325042 67.93775 133.442625 67.81325 133.560208 67.68875 133.619 67.5435 133.619 67.3775L133.619 67.3775 133.619 55.924 138.49525 63.352C138.532139 63.4073333 138.576713 63.4549815 138.628972 63.4949444L138.713125 63.549125C138.803042 63.5975417 138.896417 63.6148333 138.99325 63.601 139.103917 63.6148333 139.20075 63.5975417 139.28375 63.549125 139.36675 63.5007083 139.429 63.435 139.4705 63.352L139.4705 63.352 144.346 55.971 144.34675 67.3775C144.34675 67.5103 144.38659 67.62982 144.46627 67.73606L144.5335 67.81325C144.658 67.93775 144.817083 68 145.01075 68zM150.167125 68C150.333125 68 150.478375 67.93775 150.602875 67.81325 150.727375 67.68875 150.789625 67.5435 150.789625 67.3775L150.789625 67.3775 150.789 61.858 155.084875 61.858C155.773468 61.858 156.391015 61.7104444 156.937517 61.4153333L157.139125 61.29775C157.733958 60.92425 158.204292 60.415875 158.550125 59.772625 158.895958 59.129375 159.068875 58.4065833 159.068875 57.60425 159.068875 56.8019167 158.895958 56.0895 158.550125 55.467 158.204292 54.8445 157.733958 54.356875 157.139125 54.004125 156.544292 53.651375 155.859542 53.475 155.084875 53.475L155.084875 53.475 150.167125 53.475C150.001125 53.475 149.855875 53.53725 149.731375 53.66175 149.606875 53.78625 149.544625 53.9315 149.544625 54.0975L149.544625 54.0975 149.544625 67.3775C149.544625 67.5435 149.599958 67.68875 149.710625 67.81325 149.821292 67.93775 149.973458 68 150.167125 68zM150.789 54.7L155.084875 54.69925C155.624375 54.69925 156.094708 54.82375 156.495875 55.07275 156.897042 55.32175 157.21175 55.664125 157.44 56.099875 157.66825 56.535625 157.782375 57.0370833 157.782375 57.60425 157.782375 58.1714167 157.66825 58.6867083 157.44 59.150125 157.21175 59.6135417 156.897042 59.980125 156.495875 60.249875 156.094708 60.519625 155.624375 60.6545 155.084875 60.6545L155.084875 60.6545 150.789 60.655 150.789 54.7zM170.154562 68C170.320563 68 170.465813 67.9446667 170.590313 67.834 170.714813 67.7233333 170.777062 67.5780833 170.777062 67.39825 170.777062 67.23225 170.714813 67.087 170.590313 66.9625 170.465813 66.838 170.320563 66.77575 170.154562 66.77575L170.154562 66.77575 163.224 66.776 163.224 61.132 169.220813 61.13175C169.353613 61.13175 169.473133 61.0963367 169.579373 61.02551L169.656563 60.96575C169.781063 60.8550833 169.843313 60.7098333 169.843313 60.53 169.843313 60.364 169.781063 60.21875 169.656563 60.09425 169.532062 59.96975 169.386813 59.9075 169.220813 59.9075L169.220813 59.9075 163.224 59.908 163.224 54.7 170.154562 54.69925C170.287363 54.69925 170.406883 54.6638367 170.513123 54.59301L170.590313 54.53325C170.714813 54.4225833 170.777062 54.2773333 170.777062 54.0975 170.777062 53.9176667 170.714813 53.7689583 170.590313 53.651375 170.465813 53.5337917 170.320563 53.475 170.154562 53.475L170.154562 53.475 162.539312 53.475C162.373312 53.475 162.228063 53.53725 162.103563 53.66175 161.979062 53.78625 161.916812 53.9315 161.916812 54.0975L161.916812 54.0975 161.916812 67.3775C161.916812 67.5435 161.979062 67.68875 162.103563 67.81325 162.228063 67.93775 162.373312 68 162.539312 68L162.539312 68 170.154562 68zM178.024 68C178.203833 68 178.356 67.93775 178.4805 67.81325 178.605 67.68875 178.66725 67.5435 178.66725 67.3775L178.66725 67.3775 178.667 54.658 182.9625 54.65775C183.0953 54.65775 183.21482 54.62455 183.32106 54.55815L183.39825 54.502125C183.52275 54.398375 183.585 54.2565833 183.585 54.07675 183.585 53.8969167 183.52275 53.7516667 183.39825 53.641 183.27375 53.5303333 183.1285 53.475 182.9625 53.475L182.9625 53.475 173.0855 53.475C172.9195 53.475 172.77425 53.5303333 172.64975 53.641 172.52525 53.7516667 172.463 53.89 172.463 54.056 172.463 54.2358333 172.52525 54.3810833 172.64975 54.49175 172.77425 54.6024167 172.9195 54.65775 173.0855 54.65775L173.0855 54.65775 177.38 54.658 177.38075 67.3775C177.38075 67.5103 177.418377 67.62982 177.49363 67.73606L177.557125 67.81325C177.674708 67.93775 177.830333 68 178.024 68zM194.468375 68C194.634375 68 194.779625 67.9446667 194.904125 67.834 195.028625 67.7233333 195.090875 67.5780833 195.090875 67.39825 195.090875 67.23225 195.028625 67.087 194.904125 66.9625 194.779625 66.838 194.634375 66.77575 194.468375 66.77575L194.468375 66.77575 187.537 66.776 187.537 61.132 193.534625 61.13175C193.667425 61.13175 193.786945 61.0963367 193.893185 61.02551L193.970375 60.96575C194.094875 60.8550833 194.157125 60.7098333 194.157125 60.53 194.157125 60.364 194.094875 60.21875 193.970375 60.09425 193.845875 59.96975 193.700625 59.9075 193.534625 59.9075L193.534625 59.9075 187.537 59.908 187.537 54.7 194.468375 54.69925C194.601175 54.69925 194.720695 54.6638367 194.826935 54.59301L194.904125 54.53325C195.028625 54.4225833 195.090875 54.2773333 195.090875 54.0975 195.090875 53.9176667 195.028625 53.7689583 194.904125 53.651375 194.779625 53.5337917 194.634375 53.475 194.468375 53.475L194.468375 53.475 186.853125 53.475C186.687125 53.475 186.541875 53.53725 186.417375 53.66175 186.292875 53.78625 186.230625 53.9315 186.230625 54.0975L186.230625 54.0975 186.230625 67.3775C186.230625 67.5435 186.292875 67.68875 186.417375 67.81325 186.541875 67.93775 186.687125 68 186.853125 68L186.853125 68 194.468375 68zM208.583563 68C208.749563 68 208.898271 67.9412083 209.029688 67.823625 209.161104 67.7060417 209.226813 67.5435 209.226813 67.336L209.226813 67.336 209.226813 54.056C209.226813 53.89 209.174938 53.7516667 209.071188 53.641 208.967438 53.5303333 208.825646 53.475 208.645813 53.475 208.493646 53.475 208.358771 53.5303333 208.241188 53.641 208.123604 53.7516667 208.064813 53.89 208.064813 54.056L208.064813 54.056 208.064 65.749 199.121563 53.70325C199.080063 53.641 199.026891 53.5923672 198.962047 53.5573516L198.893313 53.526875C198.796479 53.4922917 198.706563 53.475 198.623563 53.475 198.471396 53.475 198.333063 53.526875 198.208563 53.630625 198.084063 53.734375 198.021813 53.89 198.021813 54.0975L198.021813 54.0975 198.021813 67.43975C198.021813 67.5919167 198.073688 67.7233333 198.177438 67.834 198.281188 67.9446667 198.422979 68 198.602813 68 198.768813 68 198.907146 67.9446667 199.017813 67.834 199.128479 67.7233333 199.183813 67.5919167 199.183813 67.43975L199.183813 67.43975 199.183 55.796 208.085563 67.7925C208.122451 67.8386111 208.168563 67.877037 208.223896 67.9077778L208.313813 67.948125C208.410646 67.9827083 208.500563 68 208.583563 68zM219.446188 68.2075C219.971854 68.2075 220.497521 68.1487083 221.023188 68.031125 221.548854 67.9135417 222.046854 67.7579167 222.517188 67.56425 222.987521 67.3705833 223.395604 67.1630833 223.741438 66.94175 223.893604 66.8449167 223.986979 66.7100417 224.021563 66.537125 224.056146 66.3642083 224.011188 66.2016667 223.886688 66.0495 223.789854 65.9111667 223.661896 65.831625 223.502813 65.810875 223.343729 65.790125 223.195021 65.82125 223.056688 65.90425 222.531021 66.23625 221.967313 66.4990833 221.365563 66.69275 220.763813 66.8864167 220.124021 66.98325 219.446188 66.98325 218.616188 66.98325 217.841521 66.838 217.122188 66.5475 216.402854 66.257 215.769979 65.8350833 215.223563 65.28175 214.677146 64.7284167 214.251771 64.067875 213.947438 63.300125 213.643104 62.532375 213.490938 61.6781667 213.490938 60.7375 213.490938 59.8245 213.639646 58.9875833 213.937063 58.22675 214.234479 57.4659167 214.652938 56.805375 215.192438 56.245125 215.731938 55.684875 216.364813 55.2560417 217.091063 54.958625 217.817313 54.6612083 218.602354 54.5125 219.446188 54.5125 220.137854 54.5125 220.784563 54.6093333 221.386313 54.803 221.988063 54.9966667 222.551771 55.2664167 223.077438 55.61225 223.215771 55.6814167 223.361021 55.7090833 223.513188 55.69525 223.665354 55.6814167 223.789854 55.61225 223.886688 55.48775 223.997354 55.32175 224.038854 55.1522917 224.011188 54.979375 223.983521 54.8064583 223.886688 54.6646667 223.720688 54.554 223.125854 54.1528333 222.461854 53.8415833 221.728688 53.62025 220.995521 53.3989167 220.234688 53.28825 219.446188 53.28825 218.436354 53.28825 217.488771 53.475 216.603438 53.8485 215.718104 54.222 214.943438 54.74075 214.279438 55.40475 213.615438 56.06875 213.096688 56.8537917 212.723188 57.759875 212.349688 58.6659583 212.162937 59.6585 212.162937 60.7375 212.162937 61.858 212.353146 62.87475 212.733563 63.78775 213.113979 64.70075 213.643104 65.4857917 214.320938 66.142875 214.998771 66.7999583 215.773438 67.3083333 216.644938 67.668 217.516438 68.0276667 218.450188 68.2075 219.446188 68.2075zM234.910125 68C235.076125 68 235.221375 67.9446667 235.345875 67.834 235.470375 67.7233333 235.532625 67.5780833 235.532625 67.39825 235.532625 67.23225 235.470375 67.087 235.345875 66.9625 235.221375 66.838 235.076125 66.77575 234.910125 66.77575L234.910125 66.77575 227.979 66.776 227.979 61.132 233.976375 61.13175C234.109175 61.13175 234.228695 61.0963367 234.334935 61.02551L234.412125 60.96575C234.536625 60.8550833 234.598875 60.7098333 234.598875 60.53 234.598875 60.364 234.536625 60.21875 234.412125 60.09425 234.287625 59.96975 234.142375 59.9075 233.976375 59.9075L233.976375 59.9075 227.979 59.908 227.979 54.7 234.910125 54.69925C235.042925 54.69925 235.162445 54.6638367 235.268685 54.59301L235.345875 54.53325C235.470375 54.4225833 235.532625 54.2773333 235.532625 54.0975 235.532625 53.9176667 235.470375 53.7689583 235.345875 53.651375 235.221375 53.5337917 235.076125 53.475 234.910125 53.475L234.910125 53.475 227.294875 53.475C227.128875 53.475 226.983625 53.53725 226.859125 53.66175 226.734625 53.78625 226.672375 53.9315 226.672375 54.0975L226.672375 54.0975 226.672375 67.3775C226.672375 67.5435 226.734625 67.68875 226.859125 67.81325 226.983625 67.93775 227.128875 68 227.294875 68L227.294875 68 234.910125 68zM109.27925 94.2075C109.804917 94.2075 110.330583 94.1487083 110.85625 94.031125 111.381917 93.9135417 111.879917 93.7579167 112.35025 93.56425 112.820583 93.3705833 113.228667 93.1630833 113.5745 92.94175 113.726667 92.8449167 113.820042 92.7100417 113.854625 92.537125 113.889208 92.3642083 113.84425 92.2016667 113.71975 92.0495 113.622917 91.9111667 113.494958 91.831625 113.335875 91.810875 113.176792 91.790125 113.028083 91.82125 112.88975 91.90425 112.364083 92.23625 111.800375 92.4990833 111.198625 92.69275 110.596875 92.8864167 109.957083 92.98325 109.27925 92.98325 108.44925 92.98325 107.674583 92.838 106.95525 92.5475 106.235917 92.257 105.603042 91.8350833 105.056625 91.28175 104.510208 90.7284167 104.084833 90.067875 103.7805 89.300125 103.476167 88.532375 103.324 87.6781667 103.324 86.7375 103.324 85.8245 103.472708 84.9875833 103.770125 84.22675 104.067542 83.4659167 104.486 82.805375 105.0255 82.245125 105.565 81.684875 106.197875 81.2560417 106.924125 80.958625 107.650375 80.6612083 108.435417 80.5125 109.27925 80.5125 109.970917 80.5125 110.617625 80.6093333 111.219375 80.803 111.821125 80.9966667 112.384833 81.2664167 112.9105 81.61225 113.048833 81.6814167 113.194083 81.7090833 113.34625 81.69525 113.498417 81.6814167 113.622917 81.61225 113.71975 81.48775 113.830417 81.32175 113.871917 81.1522917 113.84425 80.979375 113.816583 80.8064583 113.71975 80.6646667 113.55375 80.554 112.958917 80.1528333 112.294917 79.8415833 111.56175 79.62025 110.828583 79.3989167 110.06775 79.28825 109.27925 79.28825 108.269417 79.28825 107.321833 79.475 106.4365 79.8485 105.551167 80.222 104.7765 80.74075 104.1125 81.40475 103.4485 82.06875 102.92975 82.8537917 102.55625 83.759875 102.18275 84.6659583 101.996 85.6585 101.996 86.7375 101.996 87.858 102.186208 88.87475 102.566625 89.78775 102.947042 90.70075 103.476167 91.4857917 104.154 92.142875 104.831833 92.7999583 105.6065 93.3083333 106.478 93.668 107.3495 94.0276667 108.28325 94.2075 109.27925 94.2075zM124.743188 94C124.909188 94 125.054438 93.9446667 125.178938 93.834 125.303438 93.7233333 125.365688 93.5780833 125.365688 93.39825 125.365688 93.23225 125.303438 93.087 125.178938 92.9625 125.054438 92.838 124.909188 92.77575 124.743188 92.77575L124.743188 92.77575 117.812 92.776 117.812 87.132 123.809438 87.13175C123.942238 87.13175 124.061758 87.0963367 124.167998 87.02551L124.245188 86.96575C124.369688 86.8550833 124.431938 86.7098333 124.431938 86.53 124.431938 86.364 124.369688 86.21875 124.245188 86.09425 124.120688 85.96975 123.975438 85.9075 123.809438 85.9075L123.809438 85.9075 117.812 85.908 117.812 80.7 124.743188 80.69925C124.875988 80.69925 124.995508 80.6638367 125.101748 80.59301L125.178938 80.53325C125.303438 80.4225833 125.365688 80.2773333 125.365688 80.0975 125.365688 79.9176667 125.303438 79.7689583 125.178938 79.651375 125.054438 79.5337917 124.909188 79.475 124.743188 79.475L124.743188 79.475 117.127938 79.475C116.961938 79.475 116.816688 79.53725 116.692188 79.66175 116.567688 79.78625 116.505438 79.9315 116.505438 80.0975L116.505438 80.0975 116.505438 93.3775C116.505438 93.5435 116.567688 93.68875 116.692188 93.81325 116.816688 93.93775 116.961938 94 117.127938 94L117.127938 94 124.743188 94zM138.858375 94C139.024375 94 139.173083 93.9412083 139.3045 93.823625 139.435917 93.7060417 139.501625 93.5435 139.501625 93.336L139.501625 93.336 139.501625 80.056C139.501625 79.89 139.44975 79.7516667 139.346 79.641 139.24225 79.5303333 139.100458 79.475 138.920625 79.475 138.768458 79.475 138.633583 79.5303333 138.516 79.641 138.398417 79.7516667 138.339625 79.89 138.339625 80.056L138.339625 80.056 138.339 91.749 129.396375 79.70325C129.354875 79.641 129.301703 79.5923672 129.236859 79.5573516L129.168125 79.526875C129.071292 79.4922917 128.981375 79.475 128.898375 79.475 128.746208 79.475 128.607875 79.526875 128.483375 79.630625 128.358875 79.734375 128.296625 79.89 128.296625 80.0975L128.296625 80.0975 128.296625 93.43975C128.296625 93.5919167 128.3485 93.7233333 128.45225 93.834 128.556 93.9446667 128.697792 94 128.877625 94 129.043625 94 129.181958 93.9446667 129.292625 93.834 129.403292 93.7233333 129.458625 93.5919167 129.458625 93.43975L129.458625 93.43975 129.458 81.798 138.360375 93.7925C138.397264 93.8386111 138.443375 93.877037 138.498708 93.9077778L138.588625 93.948125C138.685458 93.9827083 138.775375 94 138.858375 94zM147.70825 94C147.888083 94 148.04025 93.93775 148.16475 93.81325 148.28925 93.68875 148.3515 93.5435 148.3515 93.3775L148.3515 93.3775 148.351 80.658 152.64675 80.65775C152.77955 80.65775 152.89907 80.62455 153.00531 80.55815L153.0825 80.502125C153.207 80.398375 153.26925 80.2565833 153.26925 80.07675 153.26925 79.8969167 153.207 79.7516667 153.0825 79.641 152.958 79.5303333 152.81275 79.475 152.64675 79.475L152.64675 79.475 142.76975 79.475C142.60375 79.475 142.4585 79.5303333 142.334 79.641 142.2095 79.7516667 142.14725 79.89 142.14725 80.056 142.14725 80.2358333 142.2095 80.3810833 142.334 80.49175 142.4585 80.6024167 142.60375 80.65775 142.76975 80.65775L142.76975 80.65775 147.065 80.658 147.065 93.3775C147.065 93.5103 147.102627 93.62982 147.17788 93.73606L147.241375 93.81325C147.358958 93.93775 147.514583 94 147.70825 94zM164.152625 94C164.318625 94 164.463875 93.9446667 164.588375 93.834 164.712875 93.7233333 164.775125 93.5780833 164.775125 93.39825 164.775125 93.23225 164.712875 93.087 164.588375 92.9625 164.463875 92.838 164.318625 92.77575 164.152625 92.77575L164.152625 92.77575 157.222 92.776 157.222 87.132 163.218875 87.13175C163.351675 87.13175 163.471195 87.0963367 163.577435 87.02551L163.654625 86.96575C163.779125 86.8550833 163.841375 86.7098333 163.841375 86.53 163.841375 86.364 163.779125 86.21875 163.654625 86.09425 163.530125 85.96975 163.384875 85.9075 163.218875 85.9075L163.218875 85.9075 157.222 85.908 157.222 80.7 164.152625 80.69925C164.285425 80.69925 164.404945 80.6638367 164.511185 80.59301L164.588375 80.53325C164.712875 80.4225833 164.775125 80.2773333 164.775125 80.0975 164.775125 79.9176667 164.712875 79.7689583 164.588375 79.651375 164.463875 79.5337917 164.318625 79.475 164.152625 79.475L164.152625 79.475 156.537375 79.475C156.371375 79.475 156.226125 79.53725 156.101625 79.66175 155.977125 79.78625 155.914875 79.9315 155.914875 80.0975L155.914875 80.0975 155.914875 93.3775C155.914875 93.5435 155.977125 93.68875 156.101625 93.81325 156.226125 93.93775 156.371375 94 156.537375 94L156.537375 94 164.152625 94zM168.411563 94C168.591396 94 168.736646 93.93775 168.847313 93.81325 168.957979 93.68875 169.013313 93.5435 169.013313 93.3775L169.013313 93.3775 169.013 87.796 173.619813 87.79575C173.837688 87.79575 174.065289 87.8171484 174.302617 87.8599453L174.543188 87.909875C174.868271 87.9859583 175.165688 88.117375 175.435438 88.304125 175.705188 88.490875 175.926521 88.7571667 176.099438 89.103 176.272354 89.4488333 176.358812 89.8915 176.358812 90.431 176.358812 91.2471667 176.424521 91.8835 176.555938 92.34 176.687354 92.7965 176.853354 93.1423333 177.053938 93.3775 177.254521 93.6126667 177.451646 93.7855833 177.645313 93.89625 177.755979 93.9515833 177.866646 93.97925 177.977313 93.97925 178.087979 93.97925 178.195188 93.9550417 178.298938 93.906625 178.402688 93.8582083 178.482229 93.7786667 178.537563 93.668 178.620563 93.5296667 178.637854 93.3844167 178.589438 93.23225 178.541021 93.0800833 178.447646 92.9625 178.309313 92.8795 178.157146 92.7826667 178.032646 92.65125 177.935812 92.48525 177.838979 92.31925 177.766354 92.07025 177.717938 91.73825 177.669521 91.40625 177.638396 90.9428333 177.624563 90.348 177.610729 89.6563333 177.468938 89.0649583 177.199187 88.573875 176.929438 88.0827917 176.573229 87.6954583 176.130562 87.411875 175.940848 87.2903393 175.744782 87.1910357 175.542364 87.1139643L175.536 87.112 175.670028 87.0617187C175.991269 86.9303021 176.290991 86.7573854 176.569194 86.5429688L176.773813 86.374375C177.174979 86.021625 177.486229 85.5893333 177.707562 85.0775 177.928896 84.5656667 178.039563 84.0054167 178.039563 83.39675 178.039563 82.64975 177.863188 81.9788333 177.510438 81.384 177.157688 80.7891667 176.670063 80.3222917 176.047563 79.983375 175.425063 79.6444583 174.719562 79.475 173.931062 79.475L173.931062 79.475 168.328563 79.475C168.162563 79.475 168.017313 79.53725 167.892812 79.66175 167.768313 79.78625 167.706063 79.9315 167.706063 80.0975L167.706063 80.0975 167.706063 93.3775C167.706063 93.5435 167.771771 93.68875 167.903188 93.81325 168.034604 93.93775 168.204063 94 168.411563 94zM169.013 80.7L173.827313 80.69925C174.684979 80.69925 175.380104 80.958625 175.912688 81.477375 176.445271 81.996125 176.711563 82.64975 176.711563 83.43825 176.711563 84.06075 176.583604 84.6071667 176.327688 85.0775 176.071771 85.5478333 175.736313 85.917875 175.321313 86.187625 174.906313 86.457375 174.463646 86.613 173.993313 86.6545L173.993313 86.6545 169.013 86.655 169.013 80.7z"/>
    <g fill-rule="nonzero" transform="translate(87 25)">
      <rect width="6" height="25" fill="#000000"/>
      <rect width="6" height="24" y="25" fill="#FF0200"/>
      <rect width="6" height="25" y="49" fill="#FFCC02"/>
    </g>
  </g>
</svg>
