<svg enable-background="new 0 0 585.918 268.174" height="268.174" viewBox="0 0 585.918 268.174" width="585.918" xmlns="http://www.w3.org/2000/svg"><path d="m0 0h585.918v269.707h-585.918z" fill="#fff"/><path d="m69.768 204.977c1.319 0 2.379-.412 3.181-1.236.801-.825 1.201-1.849 1.201-3.074v-40.914c0-1.271-.447-2.309-1.343-3.109-.895-.801-1.907-1.2-3.039-1.2-1.413 0-2.567.635-3.461 1.907l-15.85 23.68-15.384-23.68c-.315-.472-.751-.868-1.31-1.192l-.351-.186c-.729-.354-1.425-.529-2.085-.529-1.224 0-2.272.423-3.144 1.271s-1.308 1.86-1.308 3.038v40.914c0 1.226.377 2.249 1.131 3.074.753.824 1.719 1.236 2.897 1.236 1.225 0 2.214-.412 2.967-1.236.754-.825 1.131-1.849 1.131-3.074l-.001-29.105 11.661 18.436c.339.414.746.784 1.221 1.107l.37.235c.636.376 1.26.541 1.873.494.66.047 1.307-.118 1.942-.494.637-.377 1.166-.824 1.59-1.343l11.66-17.774v28.444c0 1.089.326 2.02.977 2.792l.26.282c.823.824 1.895 1.236 3.214 1.236zm42.964 0c1.225 0 2.249-.377 3.074-1.131.824-.753 1.237-1.719 1.237-2.897 0-1.082-.413-2.037-1.237-2.86-.825-.825-1.849-1.237-3.074-1.237l-19.15.001v-13.074h15.971c1.071 0 1.99-.279 2.755-.839l.318-.256c.825-.73 1.237-1.684 1.237-2.862 0-1.225-.412-2.226-1.237-3.003-.825-.778-1.85-1.166-3.074-1.166l-15.971.001v-12.012l19.15-.002c1.072 0 1.99-.279 2.755-.839l.318-.256c.824-.73 1.237-1.685 1.237-2.862 0-1.226-.413-2.227-1.237-3.004-.825-.776-1.849-1.166-3.074-1.166h-23.67c-1.225 0-2.25.412-3.075 1.237-.824.824-1.236 1.85-1.236 3.073v40.844c0 1.226.412 2.249 1.236 3.074.825.824 1.85 1.236 3.075 1.236zm33.635 0c4.569 0 8.421-1.106 11.553-3.321 3.134-2.214 5.524-5.193 7.173-8.938 1.649-3.746 2.473-7.903 2.473-12.472 0-3.392-.459-6.585-1.378-9.576-.917-2.991-2.285-5.628-4.098-7.913s-4.04-4.063-6.677-5.335c-2.638-1.272-5.654-1.909-9.045-1.909h-16.888c-1.225 0-2.25.412-3.075 1.237-.825.824-1.236 1.85-1.236 3.073v40.844c0 1.226.411 2.249 1.236 3.074.825.824 1.85 1.236 3.075 1.236zm-12.366-41.336 11.66-.002c2.215 0 4.122.447 5.724 1.343 1.602.895 2.921 2.108 3.957 3.64 1.037 1.531 1.802 3.297 2.297 5.299.494 2.003.742 4.11.742 6.325 0 2.967-.436 5.712-1.307 8.231-.872 2.521-2.249 4.547-4.133 6.077-1.885 1.531-4.311 2.297-7.279 2.297l-11.66.001v-33.211zm119.666-70.862c.388 0 .716-.135.985-.403.268-.269.403-.582.403-.94v-28.653c0-.389-.127-.709-.381-.963-.254-.253-.559-.38-.917-.38-.478-.06-.881.134-1.209.582l-11.81 17.611-11.739-17.611c-.113-.157-.245-.28-.399-.369l-.161-.079c-.224-.089-.44-.134-.648-.134-.388 0-.71.134-.964.402-.252.269-.379.583-.379.941v28.653c0 .358.119.671.357.94.239.269.553.403.941.403.387 0 .708-.135.962-.403s.381-.582.381-.94l-.002-24.717 10.523 16.032c.08.119.176.222.289.309l.181.116c.194.104.395.142.604.112.239.029.448-.008.628-.112.178-.104.312-.246.402-.425l10.52-15.926.001 24.611c0 .287.086.544.258.773l.146.167c.267.269.611.403 1.028.403zm27.558 0c.357 0 .672-.119.939-.358.27-.239.403-.552.403-.94 0-.358-.134-.671-.403-.94-.268-.269-.582-.403-.939-.403h-14.955v-12.178h12.94c.286 0 .545-.077.773-.229l.167-.129c.268-.239.402-.552.402-.94 0-.358-.135-.671-.402-.94-.269-.269-.583-.403-.94-.403l-12.94.001v-11.237l14.955-.002c.286 0 .545-.076.773-.229l.167-.129c.269-.239.402-.552.402-.94 0-.389-.134-.709-.402-.963-.269-.253-.583-.38-.94-.38h-16.432c-.357 0-.672.134-.939.402-.269.269-.403.583-.403.941v28.653c0 .358.135.671.403.94s.582.403.939.403zm20.426 0c2.985 0 5.439-.709 7.364-2.127 1.926-1.417 3.359-3.313 4.299-5.686s1.41-4.992 1.41-7.857c0-2.06-.261-4.029-.784-5.909-.521-1.881-1.319-3.56-2.395-5.037-1.074-1.478-2.44-2.634-4.097-3.47s-3.59-1.253-5.798-1.253h-11.416c-.359 0-.672.134-.941.402-.268.269-.402.583-.402.941v28.653c0 .358.135.671.402.94.27.269.582.403.941.403zm-9.941-28.696 9.494-.002c1.88 0 3.499.351 4.857 1.052 1.357.701 2.462 1.657 3.312 2.865.852 1.209 1.479 2.597 1.881 4.164.403 1.567.604 3.216.604 4.947 0 2.388-.366 4.574-1.097 6.56-.732 1.984-1.873 3.559-3.426 4.723-1.552 1.164-3.597 1.746-6.133 1.746h-9.494v-26.055zm30.749 28.696c.357 0 .68-.135.963-.403s.439-.597.47-.985v-28.564c0-.388-.142-.716-.425-.985s-.605-.402-.963-.402c-.418 0-.762.134-1.03.402-.268.269-.402.597-.402.985v28.564c0 .388.127.716.381.985.252.269.588.403 1.006.403zm30.858 0c.358 0 .671-.127.94-.381.268-.253.402-.559.402-.917s-.135-.657-.402-.896c-.27-.238-.582-.358-.94-.358l-18.849.001 20.102-26.641c.135-.179.219-.375.253-.587l.017-.218c0-.358-.135-.672-.402-.941-.27-.269-.628-.402-1.075-.402h-20.371c-.388 0-.709.119-.963.358s-.381.537-.381.896c0 .358.127.664.381.917.254.254.575.381.963.381h17.905l-20.144 26.593c-.135.18-.219.375-.252.588l-.017.218c0 .328.126.642.38.94s.59.448 1.008.448h21.445zm9.19 0c.357 0 .679-.135.963-.403.283-.269.439-.597.47-.985v-28.564c0-.388-.142-.716-.426-.985-.283-.269-.604-.402-.962-.402-.418 0-.762.134-1.03.402-.269.269-.402.597-.402.985v28.564c0 .388.127.716.38.985s.589.403 1.007.403zm32.604 0c.357 0 .68-.127.963-.381.283-.253.426-.604.426-1.052v-28.653c0-.358-.113-.657-.336-.896-.225-.239-.531-.358-.918-.358-.329 0-.62.119-.874.358s-.381.537-.381.896v25.232l-19.296-25.993c-.09-.134-.204-.239-.345-.314l-.147-.066c-.209-.074-.403-.111-.582-.111-.329 0-.626.111-.896.335-.269.224-.402.56-.402 1.008v28.786c0 .329.111.612.336.851.223.239.529.358.917.358.358 0 .656-.119.896-.358.239-.239.358-.522.358-.851l-.001-25.118 19.207 25.88c.08.099.18.183.299.249l.194.087c.209.074.404.111.582.111zm11.171 0c.357 0 .679-.135.962-.403s.44-.597.471-.985v-28.564c0-.388-.143-.716-.426-.985-.284-.269-.604-.402-.962-.402-.418 0-.762.134-1.03.402-.269.269-.402.597-.402.985v28.564c0 .388.126.716.38.985s.589.403 1.007.403zm18.457.448c2.028-.03 3.798-.402 5.305-1.119 1.507-.716 2.693-1.687 3.56-2.91.865-1.224 1.299-2.597 1.299-4.119 0-1.582-.262-2.896-.784-3.94-.521-1.044-1.238-1.91-2.149-2.596-.91-.687-1.954-1.261-3.134-1.724-1.179-.462-2.409-.873-3.693-1.231-1.313-.448-2.552-.933-3.716-1.455s-2.104-1.186-2.82-1.992c-.717-.806-1.075-1.836-1.075-3.089 0-1.134.321-2.104.963-2.91s1.522-1.425 2.641-1.858c1.12-.433 2.382-.649 3.783-.649 1.016 0 1.993.135 2.934.403.939.268 1.799.649 2.574 1.142.776.492 1.417 1.052 1.925 1.679.209.208.463.313.761.313.359 0 .688-.149.985-.448.299-.299.448-.597.448-.895 0-.389-.225-.821-.672-1.298-.955-1.165-2.245-2.045-3.873-2.642-1.626-.597-3.32-.895-5.082-.895-2.028 0-3.812.35-5.35 1.052-1.537.701-2.723 1.665-3.559 2.888-.836 1.224-1.255 2.626-1.255 4.209 0 1.402.24 2.596.717 3.581.478.985 1.149 1.813 2.015 2.485.866.671 1.851 1.239 2.955 1.701 1.104.463 2.269.873 3.492 1.231 1.492.448 2.851.948 4.074 1.5 1.225.552 2.209 1.253 2.955 2.104.747.851 1.119 1.962 1.119 3.335 0 1.104-.328 2.074-.985 2.91-.656.835-1.544 1.478-2.663 1.925-1.12.448-2.396.671-3.828.671-1.702 0-3.291-.328-4.769-.985-1.477-.657-2.798-1.611-3.962-2.865-.299-.298-.627-.448-.985-.448-.357 0-.679.149-.963.448-.283.299-.425.627-.425.985 0 .238.053.448.157.626.104.179.23.328.381.448 1.521 1.493 3.118 2.611 4.789 3.358 1.672.745 3.642 1.104 5.91 1.074zm30.164 0c1.135 0 2.269-.127 3.403-.38 1.134-.254 2.208-.59 3.223-1.007 1.016-.418 1.896-.866 2.642-1.343.328-.209.529-.5.605-.874.074-.373-.023-.724-.291-1.052-.209-.298-.486-.47-.829-.515-.344-.044-.664.022-.963.202-1.134.716-2.351 1.283-3.648 1.701-1.299.418-2.679.626-4.142.626-1.791 0-3.463-.313-5.015-.94-1.552-.626-2.917-1.537-4.096-2.731-1.18-1.194-2.097-2.619-2.754-4.275-.656-1.657-.984-3.5-.984-5.53 0-1.97.32-3.775.962-5.417.643-1.642 1.545-3.067 2.708-4.276 1.165-1.208 2.53-2.134 4.098-2.776 1.566-.642 3.261-.962 5.081-.962 1.492 0 2.888.209 4.187.626 1.298.418 2.515 1 3.648 1.747.299.149.612.208.94.179s.598-.179.806-.447c.239-.358.329-.724.269-1.097-.059-.373-.269-.679-.627-.917-1.282-.866-2.716-1.538-4.298-2.015-1.582-.478-3.224-.717-4.925-.717-2.179 0-4.224.403-6.134 1.209s-3.582 1.925-5.015 3.357c-1.433 1.433-2.552 3.126-3.357 5.082-.807 1.955-1.209 4.097-1.209 6.425 0 2.418.41 4.612 1.231 6.582.82 1.97 1.963 3.663 3.425 5.082 1.462 1.417 3.134 2.514 5.015 3.291 1.881.774 3.896 1.162 6.044 1.162zm37.978-.448c.418 0 .754-.135 1.008-.403s.395-.597.425-.985v-28.564c0-.388-.127-.716-.38-.985-.254-.269-.59-.402-1.008-.402-.389 0-.724.134-1.007.402-.285.269-.426.597-.426.985l-.001 12.626h-18.176v-12.626c0-.31-.091-.583-.272-.816l-.153-.168c-.283-.269-.605-.402-.963-.402-.418 0-.761.134-1.03.402-.268.269-.402.597-.402.985v28.564c0 .388.127.716.381.985s.589.403 1.007.403c.358 0 .68-.135.963-.403s.439-.597.471-.985v-13.34h18.176l.001 13.34c0 .311.085.583.258.816l.145.168c.267.269.595.403.983.403zm27.613 0c.357 0 .671-.119.939-.358.269-.239.403-.552.403-.94 0-.358-.135-.671-.403-.94-.269-.269-.582-.403-.939-.403h-14.956v-12.178h12.941c.286 0 .543-.077.773-.229l.166-.129c.269-.239.403-.552.403-.94 0-.358-.135-.671-.403-.94-.269-.269-.582-.403-.939-.403l-12.941.001v-11.237l14.956-.002c.286 0 .543-.076.773-.229l.166-.129c.269-.239.403-.552.403-.94 0-.389-.135-.709-.403-.963-.269-.253-.582-.38-.939-.38h-16.432c-.357 0-.672.134-.94.402-.269.269-.402.583-.402.941v28.653c0 .358.134.671.402.94s.583.403.94.403zm-276.273 56.098c.359 0 .671-.119.94-.357.268-.238.403-.553.403-.94 0-.357-.135-.672-.403-.939-.269-.27-.582-.403-.94-.403l-14.955.001v-12.179l12.94-.002c.287 0 .545-.076.773-.229l.167-.129c.268-.239.403-.552.403-.94 0-.357-.135-.672-.403-.939-.269-.27-.582-.403-.94-.403l-12.94.001v-11.237l14.955-.001c.287 0 .545-.076.774-.23l.166-.129c.268-.238.403-.551.403-.939s-.135-.709-.403-.963c-.269-.253-.582-.38-.94-.38h-16.432c-.357 0-.671.134-.939.402-.269.269-.403.582-.403.94v28.653c0 .358.134.672.403.94.268.27.582.402.939.402zm9.19 0c.388 0 .701-.133.939-.402.239-.269.358-.582.358-.94l-.002-12.042 9.941-.001c.471 0 .962.046 1.474.139l.52.107c.701.164 1.343.448 1.925.851s1.06.978 1.433 1.724.56 1.701.56 2.866c0 1.761.142 3.133.425 4.118.284.984.643 1.73 1.075 2.238s.857.881 1.275 1.12c.239.119.479.178.717.178.239 0 .47-.051.694-.156.223-.104.395-.275.514-.515.18-.299.217-.611.113-.939-.105-.328-.307-.582-.605-.762-.328-.209-.597-.492-.806-.851-.209-.357-.365-.895-.47-1.611s-.171-1.717-.202-3c-.029-1.492-.336-2.769-.917-3.828-.582-1.06-1.352-1.896-2.306-2.507-.409-.263-.833-.478-1.27-.644l-.015-.004.291-.108c.692-.283 1.34-.656 1.938-1.119l.442-.364c.866-.761 1.538-1.693 2.015-2.798.478-1.104.716-2.313.716-3.627 0-1.611-.38-3.059-1.142-4.342-.761-1.284-1.813-2.292-3.156-3.022-1.343-.731-2.864-1.097-4.566-1.097h-12.088c-.357 0-.671.134-.939.402-.269.269-.404.582-.404.94v28.653c0 .358.143.672.426.94.283.271.649.403 1.097.403zm1.296-28.696 10.389-.001c1.85 0 3.351.56 4.499 1.679 1.149 1.119 1.724 2.529 1.724 4.23 0 1.343-.275 2.522-.828 3.537-.552 1.016-1.276 1.813-2.171 2.396-.896.582-1.851.918-2.865 1.008l-10.748.001zm35.808 29.146c2.029-.031 3.798-.404 5.305-1.12 1.508-.717 2.694-1.687 3.561-2.91.865-1.224 1.298-2.596 1.298-4.118 0-1.583-.261-2.896-.784-3.94-.521-1.045-1.238-1.91-2.149-2.598-.909-.686-1.954-1.261-3.133-1.723-1.18-.464-2.411-.874-3.694-1.231-1.313-.448-2.552-.933-3.715-1.456-1.165-.521-2.104-1.186-2.821-1.991-.716-.807-1.075-1.836-1.075-3.089 0-1.136.322-2.104.963-2.91.642-.807 1.522-1.425 2.642-1.858 1.12-.434 2.381-.65 3.783-.65 1.015 0 1.992.135 2.934.404.939.268 1.798.648 2.573 1.142.776.492 1.418 1.052 1.925 1.679.209.209.463.313.762.313.358 0 .687-.149.985-.448.299-.298.447-.597.447-.896 0-.387-.225-.82-.672-1.298-.954-1.164-2.245-2.045-3.873-2.642-1.626-.597-3.32-.896-5.081-.896-2.029 0-3.812.351-5.35 1.052-1.538.702-2.724 1.665-3.56 2.889-.836 1.223-1.254 2.626-1.254 4.208 0 1.403.239 2.598.716 3.582.479.985 1.149 1.813 2.015 2.484.866.672 1.851 1.238 2.956 1.701 1.104.463 2.269.874 3.492 1.231 1.492.447 2.851.947 4.074 1.5 1.224.552 2.208 1.253 2.954 2.104.747.851 1.12 1.962 1.12 3.336 0 1.104-.328 2.073-.985 2.909-.656.837-1.545 1.478-2.663 1.926-1.12.447-2.396.672-3.828.672-1.702 0-3.292-.329-4.77-.985-1.477-.656-2.798-1.612-3.961-2.866-.299-.299-.627-.447-.986-.447-.357 0-.679.148-.962.447s-.426.627-.426.985c0 .238.053.447.157.627s.231.328.381.447c1.521 1.493 3.118 2.612 4.79 3.358 1.67.748 3.64 1.105 5.909 1.076zm25.821-.45c.389 0 .717-.133.985-.402.269-.269.403-.582.403-.94l-.002-27.444h9.269c.287 0 .545-.072.774-.215l.167-.121c.269-.225.402-.529.402-.918 0-.388-.134-.701-.402-.94-.27-.238-.582-.357-.941-.357h-21.311c-.358 0-.671.119-.94.357-.268.239-.402.537-.402.896 0 .389.135.701.402.939.27.24.582.359.94.359h9.268v27.444c0 .286.081.545.244.774l.137.166c.254.27.589.402 1.007.402zm37.586.045c.357 0 .672-.111.939-.336.27-.223.403-.544.403-.962 0-.18-.03-.357-.089-.537l-11.775-28.788c-.119-.269-.29-.485-.515-.649-.224-.164-.485-.246-.784-.246-.297 0-.559.067-.783.201-.224.135-.41.366-.56.694l-11.819 28.923c-.061.209-.074.388-.045.537.029.328.15.604.359.827.208.225.521.336.939.336.269 0 .507-.074.716-.223.209-.15.373-.373.492-.672l3.296-8.192h14.57l3.356 8.192c.089.201.207.373.356.517l.157.132c.227.164.488.246.787.246zm-5.735-11.728h-12.428l6.158-15.306zm23.889 12.088c2.209 0 4.194-.531 5.955-1.59 1.761-1.06 3.163-2.484 4.208-4.276 1.045-1.79 1.567-3.79 1.567-5.999v-18.535c0-.389-.119-.709-.357-.963-.24-.253-.568-.38-.986-.38-.388 0-.7.127-.94.38-.238.254-.357.574-.357.963v18.535c0 1.731-.41 3.283-1.231 4.656-.82 1.373-1.917 2.471-3.29 3.291-1.374.821-2.896 1.231-4.567 1.231-1.611 0-3.104-.41-4.477-1.231-1.373-.82-2.47-1.918-3.291-3.291-.82-1.373-1.23-2.925-1.23-4.656v-18.535c0-.389-.135-.709-.404-.963-.268-.253-.582-.38-.939-.38-.448 0-.798.127-1.052.38-.254.254-.381.574-.381.963v18.535c0 2.209.521 4.209 1.567 5.999 1.045 1.792 2.454 3.217 4.23 4.276 1.775 1.058 3.767 1.59 5.975 1.59zm28.319.045c2.03-.031 3.797-.404 5.306-1.12 1.507-.717 2.692-1.687 3.559-2.91.865-1.224 1.299-2.596 1.299-4.118 0-1.583-.262-2.896-.783-3.94-.522-1.045-1.239-1.91-2.149-2.598-.911-.686-1.955-1.261-3.135-1.723-1.179-.462-2.409-.874-3.693-1.231-1.312-.448-2.552-.933-3.716-1.454-1.163-.523-2.104-1.188-2.82-1.993-.717-.807-1.074-1.836-1.074-3.089 0-1.134.32-2.104.963-2.91.641-.807 1.521-1.425 2.641-1.858s2.381-.648 3.784-.648c1.015 0 1.991.133 2.932.402.939.27 1.799.648 2.575 1.142.775.492 1.417 1.052 1.925 1.679.209.209.463.313.761.313.358 0 .687-.149.984-.448.299-.298.448-.597.448-.896 0-.387-.224-.82-.672-1.298-.955-1.164-2.246-2.045-3.872-2.642-1.628-.597-3.32-.896-5.081-.896-2.03 0-3.813.351-5.352 1.052-1.536.702-2.723 1.665-3.559 2.889-.836 1.223-1.254 2.626-1.254 4.208 0 1.403.239 2.598.717 3.582.477.985 1.148 1.813 2.015 2.484.865.672 1.851 1.238 2.954 1.701 1.104.463 2.269.874 3.492 1.231 1.493.447 2.851.947 4.074 1.5 1.225.552 2.21 1.253 2.956 2.104.745.851 1.118 1.962 1.118 3.336 0 1.104-.328 2.073-.984 2.909-.657.837-1.545 1.478-2.664 1.926-1.119.447-2.396.672-3.828.672-1.701 0-3.29-.329-4.768-.985s-2.799-1.612-3.963-2.866c-.299-.299-.627-.447-.984-.447-.358 0-.679.148-.962.447-.285.299-.426.627-.426.985 0 .238.052.447.156.627s.23.328.381.447c1.522 1.493 3.119 2.612 4.79 3.358 1.67.748 3.64 1.105 5.909 1.076zm38.894-.27c.328 0 .664-.119 1.008-.357.343-.24.515-.598.515-1.075 0-.328-.104-.642-.313-.939l-12.523-15.849 11.719-10.971c.214-.214.343-.458.386-.73l.017-.209c0-.328-.127-.627-.381-.896s-.561-.403-.918-.403c-.358 0-.687.149-.985.448l-18.087 17.098v-16.247c0-.311-.086-.583-.259-.816l-.145-.169c-.269-.269-.597-.402-.985-.402-.417 0-.761.134-1.029.402s-.403.597-.403.985v28.563c0 .389.127.717.381.985.254.27.59.402 1.007.402.389 0 .717-.133.986-.402.268-.269.417-.597.447-.985v-8.93l6.086-5.698 12.494 15.703c.215.263.467.42.76.473zm18.949.225c2.21 0 4.193-.531 5.955-1.59 1.762-1.06 3.164-2.484 4.208-4.276 1.045-1.79 1.567-3.79 1.567-5.999v-18.535c0-.389-.119-.709-.357-.963-.239-.253-.567-.38-.985-.38-.389 0-.701.127-.94.38-.238.254-.357.574-.357.963v18.535c0 1.731-.41 3.283-1.232 4.656-.82 1.373-1.917 2.471-3.29 3.291-1.373.821-2.895 1.231-4.567 1.231-1.61 0-3.104-.41-4.477-1.231-1.372-.82-2.47-1.918-3.291-3.291-.82-1.373-1.23-2.925-1.23-4.656v-18.535c0-.389-.135-.709-.403-.963-.269-.253-.582-.38-.939-.38-.449 0-.799.127-1.053.38-.254.254-.381.574-.381.963v18.535c0 2.209.522 4.209 1.566 5.999 1.046 1.792 2.456 3.217 4.232 4.276 1.773 1.058 3.766 1.59 5.974 1.59zm42.914-.405c.358 0 .679-.127.962-.38.284-.254.426-.604.426-1.053v-28.653c0-.358-.111-.656-.336-.896-.223-.238-.529-.357-.918-.357-.328 0-.618.119-.872.357-.254.239-.381.537-.381.896l-.001 25.23-19.295-25.991c-.09-.135-.205-.239-.345-.315l-.148-.065c-.209-.074-.402-.111-.582-.111-.328 0-.627.111-.896.336-.269.223-.403.559-.403 1.007v28.788c0 .328.112.612.336.851.225.238.529.357.918.357.358 0 .656-.119.896-.357.238-.238.357-.522.357-.851l-.001-25.119 19.209 25.88c.08.1.179.183.299.248l.193.088c.209.073.404.11.582.11zm11.17 0c.389 0 .709-.133.963-.402s.381-.582.381-.94l-.003-13.521h12.896c.311 0 .578-.077.803-.229l.16-.129c.254-.238.381-.552.381-.94 0-.357-.127-.664-.381-.918-.254-.253-.574-.38-.963-.38l-12.896.001v-11.237l14.911-.001c.311 0 .578-.081.803-.244l.16-.137c.254-.254.381-.561.381-.918 0-.389-.127-.709-.381-.963-.254-.253-.574-.38-.963-.38h-16.297c-.357 0-.671.134-.939.402s-.403.582-.403.94v28.653c0 .358.127.672.381.94.253.271.588.403 1.006.403zm33.926 0c.388 0 .717-.133.984-.402.27-.269.404-.582.404-.94v-27.445h9.268c.286 0 .544-.072.772-.215l.168-.121c.268-.225.402-.529.402-.918 0-.388-.135-.701-.402-.94-.27-.238-.583-.357-.94-.357h-21.312c-.357 0-.671.119-.939.357-.269.239-.403.537-.403.896 0 .389.135.701.403.939.269.24.582.359.939.359h9.268l.001 27.444c0 .286.081.545.243.774l.138.166c.253.271.589.403 1.006.403zm-307.041 56.1c2.985 0 5.439-.708 7.364-2.127 1.925-1.418 3.358-3.312 4.298-5.686.939-2.373 1.41-4.992 1.41-7.857 0-2.06-.261-4.029-.783-5.909-.523-1.881-1.321-3.561-2.396-5.037-1.074-1.478-2.44-2.635-4.096-3.471-1.657-.835-3.59-1.253-5.798-1.253h-11.417c-.359 0-.672.135-.941.403s-.403.582-.403.939v28.654c0 .357.134.672.403.939.269.27.582.403.941.403h11.418zm-9.941-28.696 9.493-.002c1.88 0 3.5.351 4.859 1.052 1.357.702 2.462 1.657 3.313 2.865.85 1.209 1.478 2.597 1.88 4.164s.605 3.216.605 4.947c0 2.388-.367 4.574-1.097 6.56-.731 1.985-1.874 3.559-3.426 4.723-1.552 1.165-3.596 1.747-6.134 1.747h-9.493zm47.134 28.696c.358 0 .671-.119.94-.358.268-.238.402-.553.402-.939 0-.358-.135-.672-.402-.94-.27-.27-.582-.402-.94-.402h-14.955v-12.179h12.94c.286 0 .544-.076.774-.229l.166-.129c.268-.238.402-.553.402-.939 0-.358-.135-.672-.402-.94-.27-.27-.582-.402-.94-.402l-12.94.001v-11.237l14.955-.002c.286 0 .544-.077.774-.229l.166-.13c.269-.239.402-.552.402-.94s-.134-.709-.402-.962c-.27-.254-.582-.381-.94-.381h-16.43c-.359 0-.672.135-.94.403-.27.269-.403.582-.403.939v28.654c0 .357.133.672.403.939.269.27.582.403.94.403h16.43zm19.443.403c2.208 0 4.193-.53 5.954-1.59s3.164-2.485 4.209-4.275c1.044-1.79 1.566-3.791 1.566-5.999v-18.536c0-.388-.119-.709-.358-.962-.238-.254-.567-.381-.985-.381-.387 0-.701.127-.939.381-.239.253-.358.574-.358.962v18.536c0 1.731-.41 3.283-1.23 4.656-.821 1.372-1.919 2.47-3.291 3.291-1.373.82-2.896 1.23-4.566 1.23-1.612 0-3.104-.41-4.478-1.23-1.373-.821-2.47-1.919-3.29-3.291-.822-1.373-1.232-2.925-1.232-4.656v-18.536c0-.388-.134-.709-.402-.962-.269-.254-.582-.381-.94-.381-.447 0-.799.127-1.052.381-.254.253-.381.574-.381.962v18.536c0 2.208.522 4.209 1.567 5.999 1.044 1.79 2.454 3.216 4.23 4.275s3.766 1.59 5.976 1.59zm29.437-.403c.387 0 .716-.134.984-.403.269-.268.403-.582.403-.939l-.001-27.444 9.269-.001c.286 0 .544-.071.772-.215l.167-.121c.269-.224.403-.529.403-.918 0-.387-.135-.701-.403-.939-.269-.239-.582-.358-.939-.358h-21.312c-.357 0-.671.119-.939.358-.269.238-.403.537-.403.895 0 .389.135.702.403.941.269.238.582.357.939.357l9.267.001.002 27.444c0 .286.081.545.243.773l.138.166c.253.269.589.403 1.007.403zm26.347.447c2.03-.029 3.798-.402 5.306-1.118 1.508-.717 2.693-1.687 3.56-2.911.865-1.224 1.298-2.596 1.298-4.119 0-1.581-.261-2.895-.784-3.939-.521-1.044-1.238-1.909-2.147-2.597-.911-.687-1.956-1.261-3.135-1.724-1.18-.463-2.41-.873-3.694-1.231-1.312-.447-2.552-.932-3.715-1.455-1.164-.522-2.104-1.187-2.821-1.992-.716-.806-1.074-1.836-1.074-3.089 0-1.135.321-2.104.963-2.91.641-.807 1.521-1.426 2.642-1.858 1.119-.433 2.38-.648 3.783-.648 1.014 0 1.992.134 2.933.402.939.269 1.798.649 2.574 1.142.775.492 1.418 1.052 1.925 1.679.209.209.463.314.762.314.357 0 .686-.15.984-.449.299-.298.447-.596.447-.895 0-.388-.223-.821-.672-1.298-.954-1.165-2.245-2.046-3.871-2.642-1.628-.597-3.321-.896-5.082-.896-2.03 0-3.814.35-5.351 1.052-1.537.701-2.724 1.664-3.56 2.888-.835 1.224-1.253 2.626-1.253 4.209 0 1.402.238 2.597.716 3.581.478.985 1.148 1.813 2.016 2.484.864.672 1.851 1.239 2.954 1.702 1.104.463 2.269.873 3.492 1.231 1.493.447 2.851.947 4.074 1.5 1.224.552 2.208 1.253 2.955 2.104.746.85 1.119 1.962 1.119 3.334 0 1.105-.328 2.075-.984 2.911-.657.835-1.546 1.478-2.664 1.925-1.119.447-2.396.672-3.828.672-1.701 0-3.29-.328-4.769-.986-1.478-.656-2.799-1.61-3.962-2.864-.299-.298-.627-.448-.984-.448-.359 0-.68.15-.963.448-.284.299-.426.627-.426.984 0 .239.053.448.157.627.104.18.231.329.38.448 1.522 1.492 3.12 2.611 4.791 3.358 1.67.746 3.639 1.105 5.908 1.074zm30.165 0c1.134 0 2.269-.126 3.402-.38 1.135-.254 2.208-.59 3.224-1.008 1.015-.418 1.896-.865 2.642-1.343.328-.209.53-.5.604-.873s-.023-.724-.291-1.052c-.209-.299-.485-.471-.829-.516-.342-.045-.664.023-.962.201-1.135.717-2.351 1.284-3.649 1.702s-2.679.627-4.141.627c-1.791 0-3.463-.314-5.015-.941-1.553-.626-2.917-1.536-4.097-2.73-1.179-1.193-2.097-2.619-2.753-4.275-.657-1.656-.985-3.499-.985-5.529 0-1.97.32-3.775.963-5.417.642-1.642 1.544-3.067 2.709-4.275 1.164-1.209 2.528-2.134 4.096-2.776 1.567-.642 3.261-.963 5.082-.963 1.492 0 2.888.209 4.186.627 1.299.418 2.515 1 3.648 1.746.299.149.613.209.941.179.328-.029.597-.179.806-.447.238-.358.328-.724.268-1.097-.059-.373-.268-.68-.626-.918-1.283-.866-2.716-1.537-4.298-2.015s-3.225-.716-4.925-.716c-2.179 0-4.224.402-6.134 1.208-1.91.807-3.582 1.925-5.015 3.358-1.432 1.433-2.552 3.127-3.358 5.081-.805 1.955-1.208 4.097-1.208 6.425 0 2.417.41 4.611 1.231 6.581.82 1.97 1.962 3.664 3.424 5.082 1.463 1.417 3.135 2.515 5.016 3.291 1.88.776 3.895 1.163 6.044 1.163zm37.978-.447c.417 0 .753-.134 1.007-.403.254-.268.396-.596.426-.984v-28.564c0-.388-.127-.716-.381-.984s-.59-.403-1.008-.403c-.388 0-.724.135-1.007.403s-.426.597-.426.984l-.001 12.626h-18.176v-12.626c0-.311-.091-.583-.272-.815l-.153-.169c-.283-.269-.604-.403-.962-.403-.418 0-.762.135-1.029.403-.27.269-.404.597-.404.984v28.564c0 .389.127.717.381.984.254.27.59.403 1.008.403.358 0 .679-.134.962-.403.283-.268.441-.596.471-.984v-13.341h18.176l.001 13.341c0 .311.087.583.259.816l.146.168c.265.269.593.403.982.403zm27.165 0c.357 0 .672-.127.939-.38.27-.254.403-.574.403-.963 0-.358-.134-.664-.403-.918-.268-.253-.582-.38-.939-.38h-14.507v-27.356c0-.286-.09-.545-.271-.773l-.153-.166c-.283-.269-.604-.403-.963-.403-.418 0-.761.135-1.029.403s-.403.582-.403.939v28.654c0 .357.127.672.381.939.254.27.574.403.962.403h15.983zm28.608.045c.358 0 .672-.112.94-.336s.402-.544.402-.962c0-.18-.029-.358-.09-.538l-11.773-28.788c-.12-.268-.291-.484-.516-.648-.225-.165-.484-.247-.783-.247s-.56.068-.784.202c-.223.134-.41.365-.559.693l-11.82 28.923c-.06.209-.074.388-.045.538.03.328.149.604.358.827s.522.336.939.336c.27 0 .508-.074.717-.224s.373-.373.493-.672l3.297-8.192h14.567l3.356 8.192c.09.201.209.374.357.517l.158.133c.227.164.487.246.786.246zm-5.735-11.729h-12.427l6.158-15.305zm35.351 11.684c.358 0 .68-.127.963-.38.283-.254.426-.605.426-1.053v-28.654c0-.357-.113-.656-.336-.895-.225-.239-.53-.358-.918-.358-.328 0-.62.119-.874.358-.254.238-.379.537-.379.895l-.003 25.229-19.295-25.99c-.089-.134-.204-.238-.344-.314l-.148-.065c-.209-.075-.403-.112-.581-.112-.33 0-.627.112-.896.336s-.402.56-.402 1.007v28.789c0 .328.111.611.336.85.223.239.529.358.918.358.357 0 .656-.119.895-.358.239-.238.358-.521.358-.85l-.002-25.119 19.208 25.879c.08.1.18.183.299.25l.195.086c.207.074.401.111.58.111zm22.543 0c2.984 0 5.438-.708 7.365-2.127 1.925-1.418 3.357-3.312 4.297-5.686.94-2.373 1.411-4.992 1.411-7.857 0-2.06-.262-4.029-.784-5.909-.521-1.881-1.32-3.561-2.396-5.037-1.074-1.478-2.44-2.635-4.096-3.471-1.657-.835-3.59-1.253-5.798-1.253h-11.417c-.358 0-.672.135-.94.403s-.402.582-.402.939v28.654c0 .357.134.672.402.939.269.27.582.403.94.403h11.418zm-9.94-28.696 9.492-.002c1.881 0 3.499.351 4.857 1.052 1.358.702 2.463 1.657 3.313 2.865.851 1.209 1.478 2.597 1.88 4.164.404 1.567.605 3.216.605 4.947 0 2.388-.365 4.574-1.098 6.56-.731 1.985-1.872 3.559-3.425 4.723-1.552 1.165-3.597 1.747-6.134 1.747h-9.492v-26.056z" fill="#010202"/><path d="m192.031 56.099h12.946v53.942h-12.946z" fill="#010202"/><path d="m192.031 110.041h12.946v51.784h-12.946z" fill="#e52620"/><path d="m192.031 161.825h12.946v53.94h-12.946z" fill="#ffcc0c"/></svg>